<svg width="22" height="19" viewBox="0 0 22 19" fill="none" xmlns="http://www.w3.org/2000/svg">
<path d="M18.9302 2C19.8677 2.80729 20.4927 3.77083 20.8052 4.89062C21.1177 5.98438 21.1307 7.03906 20.8442 8.05469C20.5578 9.07031 20.063 9.94271 19.3599 10.6719L12.5239 17.625C12.1073 18.0417 11.6125 18.25 11.0396 18.25C10.4666 18.25 9.97184 18.0417 9.55518 17.625L2.71924 10.6719C2.01611 9.94271 1.52132 9.07031 1.23486 8.05469C0.948405 7.01302 0.961426 5.94531 1.27393 4.85156C1.58643 3.75781 2.21143 2.80729 3.14893 2C4.26872 1.0625 5.58382 0.658854 7.09424 0.789062C8.6307 0.893229 9.9458 1.49219 11.0396 2.58594C12.1333 1.49219 13.4354 0.893229 14.9458 0.789062C16.4823 0.658854 17.8104 1.0625 18.9302 2ZM18.0317 9.34375C18.7869 8.5625 19.1646 7.61198 19.1646 6.49219C19.1646 5.34635 18.6958 4.33073 17.7583 3.44531C16.9771 2.82031 16.0656 2.54688 15.0239 2.625C14.0083 2.70312 13.1359 3.11979 12.4067 3.875L11.0396 5.24219L9.67236 3.875C8.9432 3.11979 8.05778 2.70312 7.01611 2.625C6.00049 2.54688 5.10205 2.82031 4.3208 3.44531C3.3833 4.33073 2.91455 5.34635 2.91455 6.49219C2.91455 7.61198 3.29215 8.5625 4.04736 9.34375L10.9224 16.2969C11.0005 16.401 11.0786 16.401 11.1567 16.2969L18.0317 9.34375Z" fill="#111111"/>
</svg>
