<svg width="21" height="21" viewBox="0 0 21 21" fill="none" xmlns="http://www.w3.org/2000/svg">
<path d="M19.8442 18.8203C20.0786 19.0286 20.0786 19.25 19.8442 19.4844L18.9849 20.3438C18.7505 20.5781 18.5291 20.5781 18.3208 20.3438L13.5942 15.6172C13.4901 15.513 13.438 15.4089 13.438 15.3047V14.7578C11.9015 16.0859 10.1307 16.75 8.12549 16.75C5.8859 16.75 3.97184 15.9557 2.3833 14.3672C0.794759 12.7786 0.000488281 10.8646 0.000488281 8.625C0.000488281 6.38542 0.794759 4.47135 2.3833 2.88281C3.97184 1.29427 5.8859 0.5 8.12549 0.5C10.3651 0.5 12.2791 1.29427 13.8677 2.88281C15.4562 4.47135 16.2505 6.38542 16.2505 8.625C16.2505 10.6302 15.5864 12.401 14.2583 13.9375H14.8052C14.9354 13.9375 15.0396 13.9896 15.1177 14.0938L19.8442 18.8203ZM3.71143 13.0391C4.93538 14.263 6.40674 14.875 8.12549 14.875C9.84424 14.875 11.3156 14.263 12.5396 13.0391C13.7635 11.8151 14.3755 10.3438 14.3755 8.625C14.3755 6.90625 13.7635 5.4349 12.5396 4.21094C11.3156 2.98698 9.84424 2.375 8.12549 2.375C6.40674 2.375 4.93538 2.98698 3.71143 4.21094C2.48747 5.4349 1.87549 6.90625 1.87549 8.625C1.87549 10.3438 2.48747 11.8151 3.71143 13.0391Z" fill="#111111"/>
</svg>
