<svg width="18" height="21" viewBox="0 0 18 21" fill="none" xmlns="http://www.w3.org/2000/svg">
<path d="M12.5161 12.375C13.9484 12.375 15.1724 12.8958 16.188 13.9375C17.2297 14.9531 17.7505 16.1771 17.7505 17.6094V18.625C17.7505 19.1458 17.5682 19.5885 17.2036 19.9531C16.839 20.3177 16.3963 20.5 15.8755 20.5H2.12549C1.60465 20.5 1.16195 20.3177 0.797363 19.9531C0.43278 19.5885 0.250488 19.1458 0.250488 18.625V17.6094C0.250488 16.1771 0.758301 14.9531 1.77393 13.9375C2.81559 12.8958 4.05257 12.375 5.48486 12.375C5.8234 12.375 6.3182 12.4792 6.96924 12.6875C7.64632 12.8958 8.3234 13 9.00049 13C9.67757 13 10.3547 12.8958 11.0317 12.6875C11.7088 12.4792 12.2036 12.375 12.5161 12.375ZM15.8755 18.625V17.6094C15.8755 16.6979 15.5369 15.9167 14.8599 15.2656C14.2088 14.5885 13.4276 14.25 12.5161 14.25C12.438 14.25 12.0213 14.3542 11.2661 14.5625C10.5369 14.7708 9.78174 14.875 9.00049 14.875C8.21924 14.875 7.45101 14.7708 6.6958 14.5625C5.96663 14.3542 5.56299 14.25 5.48486 14.25C4.5734 14.25 3.77913 14.5885 3.10205 15.2656C2.45101 15.9167 2.12549 16.6979 2.12549 17.6094V18.625H15.8755ZM12.9849 10.1094C11.8911 11.2031 10.563 11.75 9.00049 11.75C7.43799 11.75 6.10986 11.2031 5.01611 10.1094C3.92236 9.01562 3.37549 7.6875 3.37549 6.125C3.37549 4.5625 3.92236 3.23438 5.01611 2.14062C6.10986 1.04688 7.43799 0.5 9.00049 0.5C10.563 0.5 11.8911 1.04688 12.9849 2.14062C14.0786 3.23438 14.6255 4.5625 14.6255 6.125C14.6255 7.6875 14.0786 9.01562 12.9849 10.1094ZM11.6567 3.46875C10.9276 2.73958 10.0422 2.375 9.00049 2.375C7.95882 2.375 7.0734 2.73958 6.34424 3.46875C5.61507 4.19792 5.25049 5.08333 5.25049 6.125C5.25049 7.16667 5.61507 8.05208 6.34424 8.78125C7.0734 9.51042 7.95882 9.875 9.00049 9.875C10.0422 9.875 10.9276 9.51042 11.6567 8.78125C12.3859 8.05208 12.7505 7.16667 12.7505 6.125C12.7505 5.08333 12.3859 4.19792 11.6567 3.46875Z" fill="#111111"/>
</svg>
